<?xml version="1.0" encoding="UTF-8"?>
<!DOCTYPE svg PUBLIC "-//W3C//DTD SVG 1.1//EN" "http://www.w3.org/Graphics/SVG/1.1/DTD/svg11.dtd">
<!-- Creator: CorelDRAW X7 -->
<svg xmlns="http://www.w3.org/2000/svg" xml:space="preserve" width="9.1438mm" height="2.9632mm" version="1.1" style="shape-rendering:geometricPrecision; text-rendering:geometricPrecision; image-rendering:optimizeQuality; fill-rule:evenodd; clip-rule:evenodd"
viewBox="0 0 914 296"
 xmlns:xlink="http://www.w3.org/1999/xlink">
 <defs>
  <style type="text/css">
   <![CDATA[
    .fil0 {fill:black;fill-rule:nonzero}
   ]]>
  </style>
   <clipPath id="id0">
    <rect x="21" y="25" width="247" height="247"/>
   </clipPath>
 </defs>
 <g id="Layer_x0020_1">
  <metadata id="CorelCorpID_0Corel-Layer"/>
  <g style="clip-path:url(#id0)">
   <image x="21" y="25" width="247" height="247" xlink:href="SOFTBYTE_Images\SOFTBYTE_ImgID1.png"/>
  </g>
  <g id="_2976740556176">
   <path class="fil0" d="M317 208l0 -8 -33 0 0 8 12 0 0 32 9 0 0 -32 12 0zm38 32l0 -8 -21 0 0 -8 18 0 0 -8 -18 0 0 -8 21 0 0 -8 -30 0 0 40 30 0zm44 -6l-6 -6c-2,1 -3,2 -5,3 -1,1 -3,2 -6,2 -1,0 -3,-1 -4,-1 -2,-1 -3,-2 -4,-3 -1,-1 -2,-3 -2,-4 -1,-2 -1,-3 -1,-5l0 0c0,-2 0,-3 1,-5 0,-1 1,-3 2,-4 1,-1 2,-2 4,-3 1,0 3,-1 4,-1 2,0 4,1 6,2 1,0 3,1 5,3l5 -7c-1,-1 -2,-1 -3,-2 -1,-1 -2,-2 -3,-2 -1,-1 -3,-1 -4,-1 -2,-1 -4,-1 -6,-1 -3,0 -6,1 -8,2 -3,1 -5,2 -7,4 -2,2 -3,4 -4,7 -1,2 -2,5 -2,8l0 0c0,3 1,6 2,8 1,3 2,5 4,7 2,2 4,3 7,4 2,1 5,2 8,2 2,0 4,0 5,-1 2,0 3,-1 5,-1 1,-1 2,-2 3,-2 1,-1 3,-2 4,-3zm41 6l0 -40 -9 0 0 16 -17 0 0 -16 -8 0 0 40 8 0 0 -16 17 0 0 16 9 0zm45 0l0 -40 -9 0 0 25 -19 -25 -8 0 0 40 9 0 0 -25 19 25 8 0zm50 -20l0 0c0,-3 0,-6 -1,-8 -1,-3 -3,-5 -5,-7 -1,-2 -4,-3 -6,-4 -3,-1 -6,-2 -9,-2 -3,0 -6,1 -8,2 -3,1 -5,2 -7,4 -2,2 -4,4 -5,7 -1,2 -1,5 -1,8l0 0c0,3 0,6 1,8 1,3 3,5 5,7 2,2 4,3 6,4 3,1 6,2 9,2 3,0 6,-1 9,-2 2,-1 4,-2 6,-4 2,-2 4,-4 5,-7 1,-2 1,-5 1,-8zm-9 0c0,2 0,3 -1,5 0,1 -1,3 -2,4 -1,1 -2,2 -4,3 -1,0 -3,1 -5,1 -2,0 -3,-1 -5,-1 -1,-1 -3,-2 -4,-3 -1,-1 -2,-3 -2,-4 -1,-2 -1,-3 -1,-5l0 0c0,-2 0,-3 1,-5 0,-1 1,-3 2,-4 1,-1 3,-2 4,-3 2,0 3,-1 5,-1 2,0 3,1 5,1 1,1 3,2 4,3 1,1 2,3 2,4 1,2 1,3 1,5l0 0zm46 20l0 -8 -20 0 0 -32 -9 0 0 40 29 0zm48 -20l0 0c0,-3 -1,-6 -2,-8 -1,-3 -2,-5 -4,-7 -2,-2 -4,-3 -7,-4 -3,-1 -5,-2 -9,-2 -3,0 -6,1 -8,2 -3,1 -5,2 -7,4 -2,2 -3,4 -4,7 -1,2 -2,5 -2,8l0 0c0,3 1,6 2,8 1,3 2,5 4,7 2,2 4,3 7,4 2,1 5,2 8,2 3,0 6,-1 9,-2 2,-1 5,-2 7,-4 2,-2 3,-4 4,-7 1,-2 2,-5 2,-8zm-10 0c0,2 0,3 0,5 -1,1 -2,3 -3,4 -1,1 -2,2 -4,3 -1,0 -3,1 -5,1 -1,0 -3,-1 -4,-1 -2,-1 -3,-2 -4,-3 -1,-1 -2,-3 -3,-4 0,-2 -1,-3 -1,-5l0 0c0,-2 1,-3 1,-5 1,-1 2,-3 3,-4 1,-1 2,-2 3,-3 2,0 3,-1 5,-1 2,0 4,1 5,1 2,1 3,2 4,3 1,1 2,3 3,4 0,2 0,3 0,5l0 0zm54 14l0 -17 -17 0 0 8 8 0 0 5c-2,2 -5,3 -8,3 -2,0 -3,-1 -5,-1 -1,-1 -2,-2 -4,-3 -1,-1 -2,-2 -2,-4 -1,-1 -1,-3 -1,-5l0 0c0,-2 0,-3 1,-5 0,-1 1,-3 2,-4 1,-1 3,-2 4,-3 1,0 3,-1 5,-1 1,0 2,0 3,1 1,0 2,0 2,0 1,1 2,1 3,2 1,0 1,1 2,1l6 -6c-1,-1 -2,-2 -4,-3 -1,0 -2,-1 -3,-1 -1,-1 -3,-1 -4,-1 -2,-1 -3,-1 -5,-1 -3,0 -6,1 -9,2 -2,1 -4,2 -6,4 -2,2 -4,4 -5,7 -1,2 -1,5 -1,8l0 0c0,3 0,6 1,8 1,3 3,5 5,7 2,2 4,3 6,4 3,1 6,2 9,2 4,0 7,-1 10,-2 3,-1 5,-3 7,-5zm18 6l0 -40 -9 0 0 40 9 0zm40 0l0 -8 -21 0 0 -8 18 0 0 -8 -18 0 0 -8 21 0 0 -8 -30 0 0 40 30 0zm37 -12l0 0c0,-2 0,-3 -1,-4 0,-2 -1,-3 -2,-4 -1,-1 -2,-1 -4,-2 -2,-1 -3,-1 -6,-2 -1,0 -3,-1 -4,-1 -1,-1 -2,-1 -2,-1 -1,-1 -2,-1 -2,-2 0,0 0,-1 0,-1l0 0c0,-1 0,-2 1,-3 1,-1 2,-1 4,-1 2,0 3,0 5,1 2,1 4,2 5,3l5 -7c-2,-1 -4,-2 -7,-3 -2,-1 -5,-2 -8,-2 -2,0 -4,1 -6,1 -1,1 -3,2 -4,3 -1,1 -2,2 -3,3 -1,2 -1,4 -1,5l0 1c0,2 0,3 1,5 1,1 2,2 3,3 1,1 2,2 4,2 2,1 3,1 5,2 2,0 4,1 5,1 1,0 1,1 2,1 1,1 1,1 1,1 0,1 1,1 1,2l0 0c0,1 -1,2 -2,3 -1,0 -2,1 -4,1 -3,0 -5,-1 -7,-1 -2,-1 -3,-3 -5,-4l-5 6c2,2 5,4 8,5 3,1 6,2 9,2 2,0 4,-1 6,-1 1,-1 3,-2 4,-3 1,-1 2,-2 3,-4 1,-1 1,-3 1,-5zm54 12l0 -8 -20 0 0 -32 -9 0 0 40 29 0zm37 -32l0 -8 -33 0 0 8 12 0 0 32 9 0 0 -32 12 0zm44 12l0 0c0,-3 -1,-6 -2,-8 -1,-2 -2,-5 -4,-6 -2,-2 -4,-4 -7,-5 -2,-1 -5,-1 -8,-1l-16 0 0 40 16 0c3,0 6,0 8,-1 3,-2 5,-3 7,-5 2,-2 3,-4 4,-6 1,-3 2,-5 2,-8zm-9 0c0,2 -1,4 -1,5 -1,1 -2,3 -3,4 -1,1 -2,2 -4,2 -1,1 -3,1 -4,1l-7 0 0 -24 7 0c1,0 3,0 4,1 2,0 3,1 4,2 1,1 2,3 3,4 0,2 1,3 1,5l0 0z"/>
   <path class="fil0" d="M361 131l0 -1c0,-4 -1,-8 -2,-11 -1,-3 -3,-6 -6,-8 -3,-2 -6,-4 -10,-6 -4,-2 -8,-3 -13,-4 -4,-2 -8,-3 -10,-3 -3,-1 -5,-2 -7,-3 -2,-1 -3,-2 -3,-3 -1,-1 -1,-3 -1,-4l0 -1c0,-2 1,-4 3,-6 2,-2 5,-2 9,-2 5,0 9,1 13,2 4,2 8,4 13,7l11 -16c-5,-4 -11,-7 -17,-9 -6,-3 -12,-4 -19,-4 -5,0 -10,1 -14,3 -4,1 -8,3 -11,6 -3,2 -5,5 -7,9 -2,4 -2,8 -2,12l0 1c0,4 0,9 2,12 1,3 4,6 6,8 3,2 7,4 11,6 4,1 8,3 13,4 4,1 8,2 10,3 3,1 5,2 6,3 2,1 3,2 3,3 1,1 1,2 1,3l0 1c0,3 -1,5 -4,7 -2,1 -6,2 -10,2 -6,0 -11,-1 -16,-3 -4,-2 -9,-5 -13,-9l-13 16c6,5 12,9 19,11 8,3 15,4 22,4 6,0 10,0 15,-2 4,-1 8,-3 11,-6 3,-2 6,-5 7,-9 2,-4 3,-8 3,-13zm94 -9l0 0c0,-6 -1,-11 -3,-15 -2,-5 -5,-9 -9,-13 -3,-4 -8,-6 -12,-8 -5,-2 -11,-3 -16,-3 -6,0 -12,1 -17,3 -5,2 -9,5 -13,8 -3,4 -6,8 -8,13 -2,5 -3,10 -3,15l0 0c0,6 1,11 3,16 2,5 5,9 8,12 4,4 8,7 13,9 5,2 10,3 16,3 6,0 11,-1 16,-3 5,-3 10,-5 13,-9 4,-4 7,-8 9,-12 2,-5 3,-10 3,-16zm-21 0c0,3 -1,6 -1,8 -1,3 -3,5 -4,7 -2,2 -4,3 -6,4 -3,2 -5,2 -8,2 -3,0 -6,0 -9,-2 -2,-1 -4,-2 -6,-4 -2,-2 -3,-4 -4,-7 -1,-2 -1,-5 -1,-8l0 0c0,-3 0,-6 1,-8 1,-3 2,-5 4,-7 2,-2 4,-3 6,-4 2,-1 5,-2 8,-2 3,0 6,1 8,2 3,1 5,3 6,4 2,2 4,5 5,7 0,3 1,5 1,8l0 0zm78 -46l0 -18c-2,-1 -4,-1 -6,-2 -3,0 -6,0 -9,0 -8,0 -13,2 -17,5 -4,4 -6,11 -6,19l0 5 -9 0 0 17 9 0 0 58 21 0 0 -58 17 0 0 -17 -17 0 0 -3c0,-6 2,-8 7,-8 2,0 4,0 6,0 1,1 3,1 4,2zm54 81l0 -17c-4,1 -7,2 -11,2 -4,0 -7,-2 -7,-7l0 -33 18 0 0 -18 -18 0 0 -19 -21 0 0 19 -9 0 0 18 9 0 0 36c0,5 1,9 2,11 1,3 2,6 4,7 2,2 4,3 7,4 3,1 6,1 9,1 3,0 6,0 9,-1 3,-1 5,-2 8,-3zm101 -24l0 -1c0,-6 -2,-11 -5,-15 -3,-4 -8,-7 -14,-9 2,-1 4,-2 5,-3 2,-2 3,-3 4,-5 2,-2 2,-4 3,-6 1,-2 1,-4 1,-7l0 -1c0,-7 -3,-14 -8,-18 -6,-5 -14,-7 -24,-7l-45 0 0 99 46 0c6,0 11,-1 15,-2 5,-1 9,-3 12,-5 3,-2 5,-5 7,-8 2,-4 3,-8 3,-12zm-27 -43c0,4 -1,7 -4,8 -3,2 -7,3 -11,3l-20 0 0 -21 21 0c4,0 8,1 10,3 3,1 4,4 4,7l0 0zm5 40c0,4 -1,6 -4,8 -2,2 -6,3 -11,3l-25 0 0 -22 25 0c5,0 9,1 12,3 2,2 3,4 3,8l0 0zm109 -46l-23 0 -16 52 -17 -52 -22 0 29 76c-1,2 -2,3 -3,4 -1,1 -3,1 -4,1 -2,0 -3,0 -5,-1 -2,0 -3,-1 -5,-2l-7 16c3,1 6,3 9,4 3,1 6,1 10,1 3,0 6,0 9,-1 2,-1 4,-2 6,-4 2,-1 4,-4 5,-6 2,-3 3,-6 5,-10l29 -78zm54 73l0 -17c-3,1 -7,2 -10,2 -5,0 -7,-2 -7,-7l0 -33 17 0 0 -18 -17 0 0 -19 -21 0 0 19 -9 0 0 18 9 0 0 36c0,5 0,9 1,11 1,3 3,6 5,7 2,2 4,3 6,4 3,1 6,1 9,1 4,0 7,0 10,-1 2,-1 5,-2 7,-3zm86 -33l0 0c0,-6 -1,-11 -2,-16 -2,-5 -4,-9 -7,-13 -3,-4 -7,-7 -11,-9 -5,-2 -10,-3 -17,-3 -5,0 -10,1 -15,3 -4,2 -8,5 -11,8 -4,4 -6,8 -8,13 -2,5 -3,10 -3,15l0 0c0,6 1,12 3,16 2,5 5,9 9,13 3,3 7,6 12,8 5,2 10,3 16,3 6,0 12,-2 17,-4 5,-3 10,-6 13,-10l-12 -11c-3,2 -6,4 -9,6 -3,1 -6,1 -9,1 -5,0 -9,-1 -12,-3 -3,-3 -5,-7 -7,-11l53 0c0,-2 0,-2 0,-3 0,-1 0,-2 0,-3zm-21 -8l-32 0c1,-5 3,-9 6,-12 2,-3 6,-4 10,-4 5,0 8,1 11,4 3,3 5,7 5,12z"/>
  </g>
 </g>
</svg>
